<svg xmlns="http://www.w3.org/2000/svg" xmlns:xlink="http://www.w3.org/1999/xlink" width="100" zoomAndPan="magnify" viewBox="0 0 75 74.999997" height="100" preserveAspectRatio="xMidYMid meet" version="1.2"><defs/><g id="6e09fa8d06"><g style="fill:#e26c45;fill-opacity:1;"><g transform="translate(3.116494, 53.846624)"><path style="stroke:none" d="M 47.5625 -48.890625 L 24.890625 0.453125 L 3.34375 -48.890625 L 12.5625 -48.890625 L 28.828125 -11.59375 L 45.921875 -48.890625 Z M 47.5625 -48.890625 "/></g></g><g style="fill:#ffbd80;fill-opacity:1;"><g transform="translate(33.875327, 74.249733)"><path style="stroke:none" d="M 36.921875 -13.796875 C 36.921875 -9.429688 35.425781 -5.972656 32.4375 -3.421875 C 29.445312 -0.859375 25.394531 0.421875 20.28125 0.421875 C 17.050781 0.421875 13.941406 -0.238281 10.953125 -1.5625 C 7.921875 -2.894531 5.71875 -4.863281 4.34375 -7.46875 L 5.1875 -8.609375 C 6.425781 -6.191406 8.515625 -4.296875 11.453125 -2.921875 C 14.347656 -1.640625 17.289062 -1 20.28125 -1 C 23.40625 -1 25.941406 -1.734375 27.890625 -3.203125 C 29.785156 -4.671875 30.734375 -6.59375 30.734375 -8.96875 C 30.734375 -12.664062 26.5625 -16.269531 18.21875 -19.78125 C 13.28125 -21.914062 9.722656 -24.097656 7.546875 -26.328125 C 5.359375 -28.503906 4.265625 -31.109375 4.265625 -34.140625 C 4.265625 -38.171875 5.804688 -41.375 8.890625 -43.75 C 11.929688 -46.070312 15.675781 -47.234375 20.125 -47.234375 C 23.40625 -47.234375 26.441406 -46.5 29.234375 -45.03125 C 32.128906 -43.507812 34.171875 -41.519531 35.359375 -39.0625 L 34.4375 -37.921875 C 33.195312 -40.429688 31.25 -42.351562 28.59375 -43.6875 C 25.894531 -45.101562 23.125 -45.8125 20.28125 -45.8125 C 17.101562 -45.8125 14.539062 -45.148438 12.59375 -43.828125 C 10.601562 -42.453125 9.609375 -40.742188 9.609375 -38.703125 C 9.609375 -36.898438 10.554688 -35.285156 12.453125 -33.859375 C 14.347656 -32.390625 17.738281 -30.566406 22.625 -28.390625 C 27.644531 -26.160156 31.296875 -23.882812 33.578125 -21.5625 C 35.804688 -19.1875 36.921875 -16.597656 36.921875 -13.796875 Z M 36.921875 -13.796875 "/></g></g></g></svg>