<svg xmlns="http://www.w3.org/2000/svg" xmlns:xlink="http://www.w3.org/1999/xlink" width="500" zoomAndPan="magnify" viewBox="0 0 375 374.999991" height="500" preserveAspectRatio="xMidYMid meet" version="1.2"><defs/><g id="c7d30fc228"><g style="fill:#e26c45;fill-opacity:1;"><g transform="translate(59.093699, 264.26175)"><path style="stroke:none" d="M 100.453125 -45.953125 L 155.1875 -165.234375 L 160.71875 -165.234375 L 84.125 1.5 L 11.296875 -165.234375 L 48.21875 -165.234375 Z M 100.453125 -45.953125 "/></g></g><g style="fill:#f5f5f5;fill-opacity:1;"><g transform="translate(152.42475, 311.821972)"><path style="stroke:none" d="M 128.765625 -48.140625 C 128.765625 -32.921875 123.554688 -20.84375 113.140625 -11.90625 C 102.710938 -2.976562 88.570312 1.484375 70.71875 1.484375 C 59.46875 1.484375 48.628906 -0.828125 38.203125 -5.453125 C 27.617188 -10.085938 19.929688 -16.953125 15.140625 -26.046875 L 18.109375 -30.015625 C 22.410156 -21.585938 29.691406 -14.972656 39.953125 -10.171875 C 50.035156 -5.703125 60.289062 -3.46875 70.71875 -3.46875 C 81.632812 -3.46875 90.484375 -6.035156 97.265625 -11.171875 C 103.878906 -16.296875 107.1875 -22.992188 107.1875 -31.265625 C 107.1875 -44.160156 92.628906 -56.726562 63.515625 -68.96875 C 46.316406 -76.414062 33.910156 -84.023438 26.296875 -91.796875 C 18.691406 -99.410156 14.890625 -108.507812 14.890625 -119.09375 C 14.890625 -133.15625 20.265625 -144.320312 31.015625 -152.59375 C 41.597656 -160.695312 54.664062 -164.75 70.21875 -164.75 C 81.625 -164.75 92.207031 -162.179688 101.96875 -157.046875 C 112.0625 -151.753906 119.175781 -144.8125 123.3125 -136.21875 L 120.078125 -132.25 C 115.785156 -141.007812 109.003906 -147.707031 99.734375 -152.34375 C 90.304688 -157.300781 80.632812 -159.78125 70.71875 -159.78125 C 59.632812 -159.78125 50.703125 -157.460938 43.921875 -152.828125 C 36.972656 -148.035156 33.5 -142.082031 33.5 -134.96875 C 33.5 -128.6875 36.804688 -123.0625 43.421875 -118.09375 C 50.035156 -112.96875 61.863281 -106.601562 78.90625 -99 C 96.4375 -91.21875 109.171875 -83.273438 117.109375 -75.171875 C 124.878906 -66.898438 128.765625 -57.890625 128.765625 -48.140625 Z M 128.765625 -48.140625 "/></g></g><g style="fill:#000000;fill-opacity:1;"><g transform="translate(165.834836, 266.344634)"><path style="stroke:none" d="M 1.390625 -31.25 L 12.59375 -31.25 C 14.625 -31.21875 16.570312 -30.800781 18.4375 -30 C 20.3125 -29.195312 21.984375 -28.09375 23.453125 -26.6875 C 24.921875 -25.28125 26.078125 -23.632812 26.921875 -21.75 C 27.765625 -19.875 28.1875 -17.828125 28.1875 -15.609375 C 28.1875 -13.441406 27.785156 -11.414062 26.984375 -9.53125 C 26.179688 -7.65625 25.0625 -6 23.625 -4.5625 C 22.195312 -3.125 20.539062 -2.003906 18.65625 -1.203125 C 16.769531 -0.398438 14.75 0 12.59375 0 L 1.390625 0 Z M 6.25 -4.8125 L 12.59375 -4.8125 C 14.570312 -4.8125 16.367188 -5.296875 17.984375 -6.265625 C 19.609375 -7.242188 20.910156 -8.550781 21.890625 -10.1875 C 22.878906 -11.820312 23.375 -13.628906 23.375 -15.609375 C 23.375 -17.578125 22.890625 -19.378906 21.921875 -21.015625 C 20.953125 -22.648438 19.648438 -23.960938 18.015625 -24.953125 C 16.378906 -25.941406 14.570312 -26.4375 12.59375 -26.4375 L 6.25 -26.4375 Z M 6.25 -4.8125 "/></g></g><g style="fill:#000000;fill-opacity:1;"><g transform="translate(201.33887, 266.344634)"><path style="stroke:none" d="M 24.765625 -26.4375 L 6.25 -26.4375 L 6.25 -19.265625 L 19.953125 -19.265625 L 19.953125 -14.390625 L 6.25 -14.390625 L 6.25 -4.859375 L 24.765625 -4.859375 L 24.765625 -0.046875 L 1.390625 -0.046875 L 1.390625 -31.25 L 24.765625 -31.25 Z M 24.765625 -26.4375 "/></g></g><g style="fill:#000000;fill-opacity:1;"><g transform="translate(233.417516, 266.344634)"><path style="stroke:none" d="M 6.015625 -22.59375 C 6.015625 -21.882812 6.253906 -21.25 6.734375 -20.6875 C 7.210938 -20.132812 7.8125 -19.664062 8.53125 -19.28125 C 9.257812 -18.894531 10.007812 -18.585938 10.78125 -18.359375 C 11.550781 -18.128906 12.21875 -17.96875 12.78125 -17.875 C 13.976562 -17.71875 15.207031 -17.40625 16.46875 -16.9375 C 17.738281 -16.476562 18.921875 -15.867188 20.015625 -15.109375 C 21.117188 -14.359375 22.007812 -13.441406 22.6875 -12.359375 C 23.363281 -11.273438 23.703125 -10.039062 23.703125 -8.65625 C 23.703125 -7.238281 23.367188 -5.988281 22.703125 -4.90625 C 22.046875 -3.820312 21.164062 -2.914062 20.0625 -2.1875 C 18.96875 -1.46875 17.769531 -0.929688 16.46875 -0.578125 C 15.175781 -0.222656 13.898438 -0.046875 12.640625 -0.046875 C 11.285156 -0.046875 9.890625 -0.238281 8.453125 -0.625 C 7.015625 -1.007812 5.6875 -1.59375 4.46875 -2.375 C 3.25 -3.164062 2.238281 -4.164062 1.4375 -5.375 L 6.0625 -7.03125 C 6.800781 -6.195312 7.765625 -5.59375 8.953125 -5.21875 C 10.140625 -4.851562 11.273438 -4.671875 12.359375 -4.671875 C 12.878906 -4.671875 13.519531 -4.738281 14.28125 -4.875 C 15.039062 -5.019531 15.789062 -5.238281 16.53125 -5.53125 C 17.269531 -5.820312 17.882812 -6.207031 18.375 -6.6875 C 18.875 -7.164062 19.125 -7.742188 19.125 -8.421875 C 19.125 -9.191406 18.890625 -9.863281 18.421875 -10.4375 C 17.960938 -11.007812 17.367188 -11.492188 16.640625 -11.890625 C 15.921875 -12.296875 15.171875 -12.613281 14.390625 -12.84375 C 13.617188 -13.070312 12.925781 -13.234375 12.3125 -13.328125 C 11.113281 -13.484375 9.875 -13.789062 8.59375 -14.25 C 7.3125 -14.71875 6.117188 -15.335938 5.015625 -16.109375 C 3.921875 -16.878906 3.039062 -17.804688 2.375 -18.890625 C 1.71875 -19.972656 1.390625 -21.207031 1.390625 -22.59375 C 1.390625 -24.039062 1.71875 -25.296875 2.375 -26.359375 C 3.039062 -27.429688 3.921875 -28.328125 5.015625 -29.046875 C 6.117188 -29.773438 7.316406 -30.316406 8.609375 -30.671875 C 9.910156 -31.023438 11.191406 -31.203125 12.453125 -31.203125 C 13.867188 -31.203125 15.296875 -30.992188 16.734375 -30.578125 C 18.171875 -30.160156 19.503906 -29.539062 20.734375 -28.71875 C 21.972656 -27.90625 22.976562 -26.882812 23.75 -25.65625 L 19.21875 -24.03125 C 18.5 -24.925781 17.515625 -25.570312 16.265625 -25.96875 C 15.015625 -26.375 13.851562 -26.578125 12.78125 -26.578125 C 12.1875 -26.578125 11.507812 -26.503906 10.75 -26.359375 C 10 -26.222656 9.257812 -26 8.53125 -25.6875 C 7.8125 -25.382812 7.210938 -24.976562 6.734375 -24.46875 C 6.253906 -23.957031 6.015625 -23.332031 6.015625 -22.59375 Z M 6.015625 -22.59375 "/></g></g><g style="fill:#000000;fill-opacity:1;"><g transform="translate(264.477809, 266.344634)"><path style="stroke:none" d="M 6.25 -31.25 L 6.25 0 L 1.390625 0 L 1.390625 -31.25 Z M 6.25 -31.25 "/></g></g><g style="fill:#000000;fill-opacity:1;"><g transform="translate(278.040842, 266.344634)"><path style="stroke:none" d="M 16.4375 -18.0625 L 29.3125 -18.0625 L 29.3125 -0.046875 L 24.4375 -0.046875 L 24.4375 -1.984375 C 23.332031 -1.367188 22.15625 -0.890625 20.90625 -0.546875 C 19.65625 -0.210938 18.347656 -0.046875 16.984375 -0.046875 C 14.828125 -0.046875 12.804688 -0.445312 10.921875 -1.25 C 9.046875 -2.050781 7.390625 -3.171875 5.953125 -4.609375 C 4.515625 -6.046875 3.394531 -7.703125 2.59375 -9.578125 C 1.789062 -11.460938 1.390625 -13.484375 1.390625 -15.640625 C 1.390625 -17.804688 1.789062 -19.828125 2.59375 -21.703125 C 3.394531 -23.585938 4.515625 -25.25 5.953125 -26.6875 C 7.390625 -28.125 9.046875 -29.242188 10.921875 -30.046875 C 12.804688 -30.847656 14.828125 -31.25 16.984375 -31.25 C 19.117188 -31.25 21.132812 -30.835938 23.03125 -30.015625 C 24.925781 -29.203125 26.585938 -28.085938 28.015625 -26.671875 L 24.578125 -23.234375 C 23.597656 -24.222656 22.457031 -25.003906 21.15625 -25.578125 C 19.863281 -26.148438 18.472656 -26.4375 16.984375 -26.4375 C 15.015625 -26.4375 13.210938 -25.945312 11.578125 -24.96875 C 9.941406 -24 8.632812 -22.695312 7.65625 -21.0625 C 6.6875 -19.425781 6.203125 -17.617188 6.203125 -15.640625 C 6.203125 -13.671875 6.6875 -11.867188 7.65625 -10.234375 C 8.632812 -8.597656 9.941406 -7.289062 11.578125 -6.3125 C 13.210938 -5.34375 15.015625 -4.859375 16.984375 -4.859375 C 18.441406 -4.859375 19.800781 -5.128906 21.0625 -5.671875 C 22.332031 -6.210938 23.457031 -6.929688 24.4375 -7.828125 L 24.4375 -13.234375 L 16.4375 -13.234375 Z M 16.4375 -18.0625 "/></g></g><g style="fill:#000000;fill-opacity:1;"><g transform="translate(314.655811, 266.344634)"><path style="stroke:none" d="M 24.3125 0 L 19.4375 0 L 6.25 -21.9375 L 6.25 0 L 1.390625 0 L 1.390625 -31.25 L 6.25 -31.25 L 19.4375 -9.3125 L 19.4375 -31.25 L 24.3125 -31.25 Z M 24.3125 0 "/></g></g><g style="fill:#e26c45;fill-opacity:1;"><g transform="translate(166.853636, 266.561182)"><path style="stroke:none" d="M 1.390625 -31.25 L 12.59375 -31.25 C 14.625 -31.21875 16.570312 -30.800781 18.4375 -30 C 20.3125 -29.195312 21.984375 -28.09375 23.453125 -26.6875 C 24.921875 -25.28125 26.078125 -23.632812 26.921875 -21.75 C 27.765625 -19.875 28.1875 -17.828125 28.1875 -15.609375 C 28.1875 -13.441406 27.785156 -11.414062 26.984375 -9.53125 C 26.179688 -7.65625 25.0625 -6 23.625 -4.5625 C 22.195312 -3.125 20.539062 -2.003906 18.65625 -1.203125 C 16.769531 -0.398438 14.75 0 12.59375 0 L 1.390625 0 Z M 6.25 -4.8125 L 12.59375 -4.8125 C 14.570312 -4.8125 16.367188 -5.296875 17.984375 -6.265625 C 19.609375 -7.242188 20.910156 -8.550781 21.890625 -10.1875 C 22.878906 -11.820312 23.375 -13.628906 23.375 -15.609375 C 23.375 -17.578125 22.890625 -19.378906 21.921875 -21.015625 C 20.953125 -22.648438 19.648438 -23.960938 18.015625 -24.953125 C 16.378906 -25.941406 14.570312 -26.4375 12.59375 -26.4375 L 6.25 -26.4375 Z M 6.25 -4.8125 "/></g></g><g style="fill:#e26c45;fill-opacity:1;"><g transform="translate(202.35767, 266.561182)"><path style="stroke:none" d="M 24.765625 -26.4375 L 6.25 -26.4375 L 6.25 -19.265625 L 19.953125 -19.265625 L 19.953125 -14.390625 L 6.25 -14.390625 L 6.25 -4.859375 L 24.765625 -4.859375 L 24.765625 -0.046875 L 1.390625 -0.046875 L 1.390625 -31.25 L 24.765625 -31.25 Z M 24.765625 -26.4375 "/></g></g><g style="fill:#e26c45;fill-opacity:1;"><g transform="translate(234.436316, 266.561182)"><path style="stroke:none" d="M 6.015625 -22.59375 C 6.015625 -21.882812 6.253906 -21.25 6.734375 -20.6875 C 7.210938 -20.132812 7.8125 -19.664062 8.53125 -19.28125 C 9.257812 -18.894531 10.007812 -18.585938 10.78125 -18.359375 C 11.550781 -18.128906 12.21875 -17.96875 12.78125 -17.875 C 13.976562 -17.71875 15.207031 -17.40625 16.46875 -16.9375 C 17.738281 -16.476562 18.921875 -15.867188 20.015625 -15.109375 C 21.117188 -14.359375 22.007812 -13.441406 22.6875 -12.359375 C 23.363281 -11.273438 23.703125 -10.039062 23.703125 -8.65625 C 23.703125 -7.238281 23.367188 -5.988281 22.703125 -4.90625 C 22.046875 -3.820312 21.164062 -2.914062 20.0625 -2.1875 C 18.96875 -1.46875 17.769531 -0.929688 16.46875 -0.578125 C 15.175781 -0.222656 13.898438 -0.046875 12.640625 -0.046875 C 11.285156 -0.046875 9.890625 -0.238281 8.453125 -0.625 C 7.015625 -1.007812 5.6875 -1.59375 4.46875 -2.375 C 3.25 -3.164062 2.238281 -4.164062 1.4375 -5.375 L 6.0625 -7.03125 C 6.800781 -6.195312 7.765625 -5.59375 8.953125 -5.21875 C 10.140625 -4.851562 11.273438 -4.671875 12.359375 -4.671875 C 12.878906 -4.671875 13.519531 -4.738281 14.28125 -4.875 C 15.039062 -5.019531 15.789062 -5.238281 16.53125 -5.53125 C 17.269531 -5.820312 17.882812 -6.207031 18.375 -6.6875 C 18.875 -7.164062 19.125 -7.742188 19.125 -8.421875 C 19.125 -9.191406 18.890625 -9.863281 18.421875 -10.4375 C 17.960938 -11.007812 17.367188 -11.492188 16.640625 -11.890625 C 15.921875 -12.296875 15.171875 -12.613281 14.390625 -12.84375 C 13.617188 -13.070312 12.925781 -13.234375 12.3125 -13.328125 C 11.113281 -13.484375 9.875 -13.789062 8.59375 -14.25 C 7.3125 -14.71875 6.117188 -15.335938 5.015625 -16.109375 C 3.921875 -16.878906 3.039062 -17.804688 2.375 -18.890625 C 1.71875 -19.972656 1.390625 -21.207031 1.390625 -22.59375 C 1.390625 -24.039062 1.71875 -25.296875 2.375 -26.359375 C 3.039062 -27.429688 3.921875 -28.328125 5.015625 -29.046875 C 6.117188 -29.773438 7.316406 -30.316406 8.609375 -30.671875 C 9.910156 -31.023438 11.191406 -31.203125 12.453125 -31.203125 C 13.867188 -31.203125 15.296875 -30.992188 16.734375 -30.578125 C 18.171875 -30.160156 19.503906 -29.539062 20.734375 -28.71875 C 21.972656 -27.90625 22.976562 -26.882812 23.75 -25.65625 L 19.21875 -24.03125 C 18.5 -24.925781 17.515625 -25.570312 16.265625 -25.96875 C 15.015625 -26.375 13.851562 -26.578125 12.78125 -26.578125 C 12.1875 -26.578125 11.507812 -26.503906 10.75 -26.359375 C 10 -26.222656 9.257812 -26 8.53125 -25.6875 C 7.8125 -25.382812 7.210938 -24.976562 6.734375 -24.46875 C 6.253906 -23.957031 6.015625 -23.332031 6.015625 -22.59375 Z M 6.015625 -22.59375 "/></g></g><g style="fill:#e26c45;fill-opacity:1;"><g transform="translate(265.496609, 266.561182)"><path style="stroke:none" d="M 6.25 -31.25 L 6.25 0 L 1.390625 0 L 1.390625 -31.25 Z M 6.25 -31.25 "/></g></g><g style="fill:#e26c45;fill-opacity:1;"><g transform="translate(279.059642, 266.561182)"><path style="stroke:none" d="M 16.4375 -18.0625 L 29.3125 -18.0625 L 29.3125 -0.046875 L 24.4375 -0.046875 L 24.4375 -1.984375 C 23.332031 -1.367188 22.15625 -0.890625 20.90625 -0.546875 C 19.65625 -0.210938 18.347656 -0.046875 16.984375 -0.046875 C 14.828125 -0.046875 12.804688 -0.445312 10.921875 -1.25 C 9.046875 -2.050781 7.390625 -3.171875 5.953125 -4.609375 C 4.515625 -6.046875 3.394531 -7.703125 2.59375 -9.578125 C 1.789062 -11.460938 1.390625 -13.484375 1.390625 -15.640625 C 1.390625 -17.804688 1.789062 -19.828125 2.59375 -21.703125 C 3.394531 -23.585938 4.515625 -25.25 5.953125 -26.6875 C 7.390625 -28.125 9.046875 -29.242188 10.921875 -30.046875 C 12.804688 -30.847656 14.828125 -31.25 16.984375 -31.25 C 19.117188 -31.25 21.132812 -30.835938 23.03125 -30.015625 C 24.925781 -29.203125 26.585938 -28.085938 28.015625 -26.671875 L 24.578125 -23.234375 C 23.597656 -24.222656 22.457031 -25.003906 21.15625 -25.578125 C 19.863281 -26.148438 18.472656 -26.4375 16.984375 -26.4375 C 15.015625 -26.4375 13.210938 -25.945312 11.578125 -24.96875 C 9.941406 -24 8.632812 -22.695312 7.65625 -21.0625 C 6.6875 -19.425781 6.203125 -17.617188 6.203125 -15.640625 C 6.203125 -13.671875 6.6875 -11.867188 7.65625 -10.234375 C 8.632812 -8.597656 9.941406 -7.289062 11.578125 -6.3125 C 13.210938 -5.34375 15.015625 -4.859375 16.984375 -4.859375 C 18.441406 -4.859375 19.800781 -5.128906 21.0625 -5.671875 C 22.332031 -6.210938 23.457031 -6.929688 24.4375 -7.828125 L 24.4375 -13.234375 L 16.4375 -13.234375 Z M 16.4375 -18.0625 "/></g></g><g style="fill:#e26c45;fill-opacity:1;"><g transform="translate(315.674611, 266.561182)"><path style="stroke:none" d="M 24.3125 0 L 19.4375 0 L 6.25 -21.9375 L 6.25 0 L 1.390625 0 L 1.390625 -31.25 L 6.25 -31.25 L 19.4375 -9.3125 L 19.4375 -31.25 L 24.3125 -31.25 Z M 24.3125 0 "/></g></g><g style="fill:#f75a27;fill-opacity:0.9686;"><g transform="translate(43.657619, 267.93557)"><path style="stroke:none" d="M 16.109375 0 L 12.828125 0 L 1.390625 -31.25 L 4.71875 -31.25 L 14.484375 -4.53125 L 20 -19.71875 L 23.328125 -19.71875 L 28.890625 -4.53125 L 38.65625 -31.25 L 41.984375 -31.25 L 30.5625 0 L 27.21875 0 L 21.671875 -15.1875 Z M 16.109375 0 "/></g></g><g style="fill:#f75a27;fill-opacity:0.9686;"><g transform="translate(92.909496, 267.93557)"><path style="stroke:none" d="M 23.890625 -28.15625 L 4.484375 -28.15625 L 4.484375 -18.375 L 19.078125 -18.375 L 19.078125 -15.28125 L 4.484375 -15.28125 L 4.484375 -3.140625 L 23.890625 -3.140625 L 23.890625 0 L 1.390625 0 L 1.390625 -31.25 L 23.890625 -31.25 Z M 23.890625 -28.15625 "/></g></g><g style="fill:#f75a27;fill-opacity:0.9686;"><g transform="translate(124.06236, 267.93557)"><path style="stroke:none" d="M 23.234375 -9.265625 C 23.234375 -7.597656 22.816406 -6.0625 21.984375 -4.65625 C 21.148438 -3.25 20.039062 -2.117188 18.65625 -1.265625 C 17.269531 -0.421875 15.726562 0 14.03125 0 L 1.390625 0 L 1.390625 -31.203125 L 11.671875 -31.203125 C 13.117188 -31.203125 14.425781 -30.835938 15.59375 -30.109375 C 16.769531 -29.390625 17.703125 -28.4375 18.390625 -27.25 C 19.085938 -26.0625 19.4375 -24.753906 19.4375 -23.328125 C 19.4375 -22.222656 19.21875 -21.207031 18.78125 -20.28125 C 18.351562 -19.351562 17.753906 -18.566406 16.984375 -17.921875 C 18.804688 -17.296875 20.300781 -16.203125 21.46875 -14.640625 C 22.644531 -13.085938 23.234375 -11.296875 23.234375 -9.265625 Z M 11.578125 -28.15625 L 4.484375 -28.15625 L 4.484375 -18.515625 L 11.671875 -18.515625 C 13.054688 -18.578125 14.179688 -19.070312 15.046875 -20 C 15.910156 -20.925781 16.34375 -22.035156 16.34375 -23.328125 C 16.34375 -24.628906 15.894531 -25.757812 15 -26.71875 C 14.101562 -27.675781 12.960938 -28.15625 11.578125 -28.15625 Z M 4.484375 -3.109375 L 14.03125 -3.109375 C 15.226562 -3.109375 16.28125 -3.390625 17.1875 -3.953125 C 18.101562 -4.523438 18.816406 -5.289062 19.328125 -6.25 C 19.835938 -7.207031 20.09375 -8.226562 20.09375 -9.3125 C 20.09375 -10.414062 19.828125 -11.429688 19.296875 -12.359375 C 18.773438 -13.285156 18.054688 -14.023438 17.140625 -14.578125 C 16.234375 -15.140625 15.179688 -15.421875 13.984375 -15.421875 L 4.484375 -15.421875 Z M 4.484375 -3.109375 "/></g></g><g style="fill:#ffffff;fill-opacity:1;"><g transform="translate(44.517658, 267.161196)"><path style="stroke:none" d="M 16.109375 0 L 12.828125 0 L 1.390625 -31.25 L 4.71875 -31.25 L 14.484375 -4.53125 L 20 -19.71875 L 23.328125 -19.71875 L 28.890625 -4.53125 L 38.65625 -31.25 L 41.984375 -31.25 L 30.5625 0 L 27.21875 0 L 21.671875 -15.1875 Z M 16.109375 0 "/></g></g><g style="fill:#ffffff;fill-opacity:1;"><g transform="translate(93.769535, 267.161196)"><path style="stroke:none" d="M 23.890625 -28.15625 L 4.484375 -28.15625 L 4.484375 -18.375 L 19.078125 -18.375 L 19.078125 -15.28125 L 4.484375 -15.28125 L 4.484375 -3.140625 L 23.890625 -3.140625 L 23.890625 0 L 1.390625 0 L 1.390625 -31.25 L 23.890625 -31.25 Z M 23.890625 -28.15625 "/></g></g><g style="fill:#ffffff;fill-opacity:1;"><g transform="translate(124.922399, 267.161196)"><path style="stroke:none" d="M 23.234375 -9.265625 C 23.234375 -7.597656 22.816406 -6.0625 21.984375 -4.65625 C 21.148438 -3.25 20.039062 -2.117188 18.65625 -1.265625 C 17.269531 -0.421875 15.726562 0 14.03125 0 L 1.390625 0 L 1.390625 -31.203125 L 11.671875 -31.203125 C 13.117188 -31.203125 14.425781 -30.835938 15.59375 -30.109375 C 16.769531 -29.390625 17.703125 -28.4375 18.390625 -27.25 C 19.085938 -26.0625 19.4375 -24.753906 19.4375 -23.328125 C 19.4375 -22.222656 19.21875 -21.207031 18.78125 -20.28125 C 18.351562 -19.351562 17.753906 -18.566406 16.984375 -17.921875 C 18.804688 -17.296875 20.300781 -16.203125 21.46875 -14.640625 C 22.644531 -13.085938 23.234375 -11.296875 23.234375 -9.265625 Z M 11.578125 -28.15625 L 4.484375 -28.15625 L 4.484375 -18.515625 L 11.671875 -18.515625 C 13.054688 -18.578125 14.179688 -19.070312 15.046875 -20 C 15.910156 -20.925781 16.34375 -22.035156 16.34375 -23.328125 C 16.34375 -24.628906 15.894531 -25.757812 15 -26.71875 C 14.101562 -27.675781 12.960938 -28.15625 11.578125 -28.15625 Z M 4.484375 -3.109375 L 14.03125 -3.109375 C 15.226562 -3.109375 16.28125 -3.390625 17.1875 -3.953125 C 18.101562 -4.523438 18.816406 -5.289062 19.328125 -6.25 C 19.835938 -7.207031 20.09375 -8.226562 20.09375 -9.3125 C 20.09375 -10.414062 19.828125 -11.429688 19.296875 -12.359375 C 18.773438 -13.285156 18.054688 -14.023438 17.140625 -14.578125 C 16.234375 -15.140625 15.179688 -15.421875 13.984375 -15.421875 L 4.484375 -15.421875 Z M 4.484375 -3.109375 "/></g></g></g></svg>