<svg xmlns="http://www.w3.org/2000/svg" width="500" height="500" version="1.2" viewBox="0 0 375 375"><g style="fill:#e26c45;fill-opacity:1"><path d="m100.453-45.953 54.734-119.281h5.532L84.125 1.5 11.297-165.234h36.922Zm0 0" style="stroke:none" transform="translate(59.094 264.262)"/></g><g style="fill:#f5f5f5;fill-opacity:1"><path d="M128.766-48.14c0 15.218-5.211 27.296-15.625 36.234-10.43 8.93-24.57 13.39-42.422 13.39-11.25 0-22.09-2.312-32.516-6.937-10.586-4.633-18.273-11.5-23.062-20.594l2.968-3.969c4.301 8.43 11.582 15.043 21.844 19.844C50.035-5.703 60.29-3.469 70.72-3.469c10.914 0 19.765-2.566 26.547-7.703 6.613-5.125 9.921-11.82 9.921-20.094 0-12.894-14.558-25.46-43.671-37.703-17.2-7.445-29.606-15.054-37.22-22.828-7.605-7.613-11.405-16.71-11.405-27.297 0-14.062 5.375-25.226 16.125-33.5 10.582-8.101 23.648-12.156 39.203-12.156 11.406 0 21.988 2.57 31.75 7.703 10.094 5.293 17.207 12.234 21.344 20.828l-3.235 3.969c-4.293-8.758-11.074-15.457-20.344-20.094-9.43-4.957-19.101-7.437-29.015-7.437-11.086 0-20.016 2.32-26.797 6.953-6.95 4.793-10.422 10.746-10.422 17.86 0 6.28 3.305 11.905 9.922 16.874 6.613 5.125 18.441 11.492 35.484 19.094 17.531 7.781 30.266 15.727 38.203 23.828 7.77 8.274 11.657 17.281 11.657 27.031Zm0 0" style="stroke:none" transform="translate(152.425 311.822)"/></g><g style="fill:#000;fill-opacity:1"><path d="M1.39-31.25h11.204c2.031.031 3.976.45 5.844 1.25a16.728 16.728 0 0 1 5.015 3.313 15.601 15.601 0 0 1 3.469 4.937c.844 1.875 1.265 3.922 1.265 6.14 0 2.169-.402 4.196-1.203 6.079a15.732 15.732 0 0 1-3.359 4.969 15.495 15.495 0 0 1-4.969 3.359C16.77-.398 14.75 0 12.594 0H1.39ZM6.25-4.812h6.344c1.976 0 3.773-.485 5.39-1.454a11.244 11.244 0 0 0 3.907-3.921c.988-1.633 1.484-3.442 1.484-5.422 0-1.97-.484-3.77-1.453-5.407a11.287 11.287 0 0 0-3.906-3.937c-1.637-.988-3.446-1.485-5.422-1.485H6.25Zm0 0" style="stroke:none" transform="translate(165.835 266.345)"/></g><g style="fill:#000;fill-opacity:1"><path d="M24.766-26.438H6.25v7.172h13.703v4.875H6.25v9.532h18.516v4.812H1.39V-31.25h23.375Zm0 0" style="stroke:none" transform="translate(201.339 266.345)"/></g><g style="fill:#000;fill-opacity:1"><path d="M6.016-22.594c0 .711.238 1.344.718 1.907.477.554 1.079 1.023 1.797 1.406.727.386 1.477.695 2.25.922.77.23 1.438.39 2 .484 1.196.156 2.426.469 3.688.938 1.27.46 2.453 1.07 3.547 1.828a9.277 9.277 0 0 1 2.672 2.75c.675 1.086 1.015 2.32 1.015 3.703 0 1.418-.336 2.668-1 3.75a8.509 8.509 0 0 1-2.64 2.718 12.391 12.391 0 0 1-3.594 1.61c-1.293.355-2.57.531-3.828.531-1.356 0-2.75-.191-4.188-.578a14.026 14.026 0 0 1-3.984-1.75 10.32 10.32 0 0 1-3.032-3l4.625-1.656c.739.836 1.704 1.437 2.891 1.812 1.188.367 2.32.547 3.406.547.52 0 1.16-.066 1.922-.203a12.493 12.493 0 0 0 2.25-.656c.739-.29 1.352-.676 1.844-1.157.5-.476.75-1.054.75-1.734 0-.77-.234-1.441-.703-2.015-.461-.57-1.055-1.055-1.781-1.454a10.722 10.722 0 0 0-2.25-.953 16.27 16.27 0 0 0-2.079-.484c-1.199-.156-2.437-.461-3.718-.922a15.41 15.41 0 0 1-3.578-1.86c-1.094-.769-1.977-1.695-2.641-2.78-.656-1.083-.984-2.317-.984-3.704 0-1.445.328-2.703.984-3.765a8.661 8.661 0 0 1 2.64-2.688c1.102-.726 2.301-1.27 3.594-1.625 1.301-.351 2.582-.531 3.844-.531 1.414 0 2.844.21 4.281.625a14.43 14.43 0 0 1 4 1.86 10.02 10.02 0 0 1 3.016 3.062l-4.531 1.625c-.719-.895-1.703-1.54-2.953-1.938-1.25-.406-2.414-.61-3.485-.61-.594 0-1.273.075-2.031.22-.75.136-1.492.359-2.219.672-.719.304-1.32.71-1.797 1.218-.48.512-.718 1.137-.718 1.875Zm0 0" style="stroke:none" transform="translate(233.418 266.345)"/></g><g style="fill:#000;fill-opacity:1"><path d="M6.25-31.25V0H1.39v-31.25Zm0 0" style="stroke:none" transform="translate(264.478 266.345)"/></g><g style="fill:#000;fill-opacity:1"><path d="M16.438-18.063h12.875V-.047h-4.875v-1.937a15.802 15.802 0 0 1-3.532 1.437c-1.25.336-2.558.5-3.922.5-2.156 0-4.18-.398-6.062-1.203a15.667 15.667 0 0 1-4.969-3.36 15.667 15.667 0 0 1-3.36-4.968c-.804-1.883-1.202-3.906-1.202-6.063 0-2.164.398-4.187 1.203-6.062a15.648 15.648 0 0 1 3.36-4.985 15.732 15.732 0 0 1 4.968-3.359c1.883-.8 3.906-1.203 6.062-1.203 2.133 0 4.149.414 6.047 1.234a15.973 15.973 0 0 1 4.985 3.344l-3.438 3.438a11.07 11.07 0 0 0-3.422-2.344 10.224 10.224 0 0 0-4.172-.86c-1.968 0-3.773.493-5.406 1.47a11.083 11.083 0 0 0-3.922 3.905c-.968 1.637-1.453 3.446-1.453 5.422 0 1.97.484 3.774 1.453 5.407a11.158 11.158 0 0 0 3.922 3.921c1.633.97 3.438 1.454 5.406 1.454 1.457 0 2.817-.27 4.078-.813a11.747 11.747 0 0 0 3.375-2.156v-5.406h-8Zm0 0" style="stroke:none" transform="translate(278.04 266.345)"/></g><g style="fill:#000;fill-opacity:1"><path d="M24.313 0h-4.875L6.25-21.938V0H1.39v-31.25h4.86L19.438-9.312V-31.25h4.875Zm0 0" style="stroke:none" transform="translate(314.656 266.345)"/></g><g style="fill:#e26c45;fill-opacity:1"><path d="M1.39-31.25h11.204c2.031.031 3.976.45 5.844 1.25a16.728 16.728 0 0 1 5.015 3.313 15.601 15.601 0 0 1 3.469 4.937c.844 1.875 1.265 3.922 1.265 6.14 0 2.169-.402 4.196-1.203 6.079a15.732 15.732 0 0 1-3.359 4.969 15.495 15.495 0 0 1-4.969 3.359C16.77-.398 14.75 0 12.594 0H1.39ZM6.25-4.812h6.344c1.976 0 3.773-.485 5.39-1.454a11.244 11.244 0 0 0 3.907-3.921c.988-1.633 1.484-3.442 1.484-5.422 0-1.97-.484-3.77-1.453-5.407a11.287 11.287 0 0 0-3.906-3.937c-1.637-.988-3.446-1.485-5.422-1.485H6.25Zm0 0" style="stroke:none" transform="translate(166.854 266.561)"/></g><g style="fill:#e26c45;fill-opacity:1"><path d="M24.766-26.438H6.25v7.172h13.703v4.875H6.25v9.532h18.516v4.812H1.39V-31.25h23.375Zm0 0" style="stroke:none" transform="translate(202.358 266.561)"/></g><g style="fill:#e26c45;fill-opacity:1"><path d="M6.016-22.594c0 .711.238 1.344.718 1.907.477.554 1.079 1.023 1.797 1.406.727.386 1.477.695 2.25.922.77.23 1.438.39 2 .484 1.196.156 2.426.469 3.688.938 1.27.46 2.453 1.07 3.547 1.828a9.277 9.277 0 0 1 2.672 2.75c.675 1.086 1.015 2.32 1.015 3.703 0 1.418-.336 2.668-1 3.75a8.509 8.509 0 0 1-2.64 2.718 12.391 12.391 0 0 1-3.594 1.61c-1.293.355-2.57.531-3.828.531-1.356 0-2.75-.191-4.188-.578a14.026 14.026 0 0 1-3.984-1.75 10.32 10.32 0 0 1-3.032-3l4.625-1.656c.739.836 1.704 1.437 2.891 1.812 1.188.367 2.32.547 3.406.547.52 0 1.16-.066 1.922-.203a12.493 12.493 0 0 0 2.25-.656c.739-.29 1.352-.676 1.844-1.157.5-.476.75-1.054.75-1.734 0-.77-.234-1.441-.703-2.015-.461-.57-1.055-1.055-1.781-1.454a10.722 10.722 0 0 0-2.25-.953 16.27 16.27 0 0 0-2.079-.484c-1.199-.156-2.437-.461-3.718-.922a15.41 15.41 0 0 1-3.578-1.86c-1.094-.769-1.977-1.695-2.641-2.78-.656-1.083-.984-2.317-.984-3.704 0-1.445.328-2.703.984-3.765a8.661 8.661 0 0 1 2.64-2.688c1.102-.726 2.301-1.27 3.594-1.625 1.301-.351 2.582-.531 3.844-.531 1.414 0 2.844.21 4.281.625a14.43 14.43 0 0 1 4 1.86 10.02 10.02 0 0 1 3.016 3.062l-4.531 1.625c-.719-.895-1.703-1.54-2.953-1.938-1.25-.406-2.414-.61-3.485-.61-.594 0-1.273.075-2.031.22-.75.136-1.492.359-2.219.672-.719.304-1.32.71-1.797 1.218-.48.512-.718 1.137-.718 1.875Zm0 0" style="stroke:none" transform="translate(234.436 266.561)"/></g><g style="fill:#e26c45;fill-opacity:1"><path d="M6.25-31.25V0H1.39v-31.25Zm0 0" style="stroke:none" transform="translate(265.497 266.561)"/></g><g style="fill:#e26c45;fill-opacity:1"><path d="M16.438-18.063h12.875V-.047h-4.875v-1.937a15.802 15.802 0 0 1-3.532 1.437c-1.25.336-2.558.5-3.922.5-2.156 0-4.18-.398-6.062-1.203a15.667 15.667 0 0 1-4.969-3.36 15.667 15.667 0 0 1-3.36-4.968c-.804-1.883-1.202-3.906-1.202-6.063 0-2.164.398-4.187 1.203-6.062a15.648 15.648 0 0 1 3.36-4.985 15.732 15.732 0 0 1 4.968-3.359c1.883-.8 3.906-1.203 6.062-1.203 2.133 0 4.149.414 6.047 1.234a15.973 15.973 0 0 1 4.985 3.344l-3.438 3.438a11.07 11.07 0 0 0-3.422-2.344 10.224 10.224 0 0 0-4.172-.86c-1.968 0-3.773.493-5.406 1.47a11.083 11.083 0 0 0-3.922 3.905c-.968 1.637-1.453 3.446-1.453 5.422 0 1.97.484 3.774 1.453 5.407a11.158 11.158 0 0 0 3.922 3.921c1.633.97 3.438 1.454 5.406 1.454 1.457 0 2.817-.27 4.078-.813a11.747 11.747 0 0 0 3.375-2.156v-5.406h-8Zm0 0" style="stroke:none" transform="translate(279.06 266.561)"/></g><g style="fill:#e26c45;fill-opacity:1"><path d="M24.313 0h-4.875L6.25-21.938V0H1.39v-31.25h4.86L19.438-9.312V-31.25h4.875Zm0 0" style="stroke:none" transform="translate(315.675 266.561)"/></g><g style="fill:#f75a27;fill-opacity:.9686"><path d="M16.11 0h-3.282L1.391-31.25h3.328l9.765 26.719L20-19.72h3.328L28.891-4.53l9.765-26.719h3.328L30.562 0H27.22l-5.547-15.188Zm0 0" style="stroke:none" transform="translate(43.658 267.936)"/></g><g style="fill:#f75a27;fill-opacity:.9686"><path d="M23.89-28.156H4.485v9.781h14.594v3.094H4.484v12.14h19.407V0H1.39v-31.25h22.5Zm0 0" style="stroke:none" transform="translate(92.91 267.936)"/></g><g style="fill:#f75a27;fill-opacity:.9686"><path d="M23.234-9.266a8.887 8.887 0 0 1-1.25 4.61 9.807 9.807 0 0 1-3.328 3.39C17.27-.422 15.726 0 14.031 0H1.391v-31.203h10.28c1.446 0 2.755.367 3.923 1.094a8.006 8.006 0 0 1 2.797 2.859 7.627 7.627 0 0 1 1.047 3.922c0 1.105-.22 2.121-.657 3.047a6.699 6.699 0 0 1-1.797 2.36c1.82.624 3.317 1.718 4.485 3.28 1.176 1.555 1.765 3.344 1.765 5.375Zm-11.656-18.89H4.484v9.64h7.188c1.383-.062 2.508-.554 3.375-1.484.863-.926 1.297-2.035 1.297-3.328 0-1.3-.45-2.43-1.344-3.39-.898-.958-2.04-1.438-3.422-1.438ZM4.484-3.11h9.547c1.196 0 2.25-.282 3.156-.844a5.966 5.966 0 0 0 2.141-2.297 6.438 6.438 0 0 0 .766-3.063 6.035 6.035 0 0 0-.797-3.046 6.023 6.023 0 0 0-2.156-2.22c-.907-.562-1.961-.843-3.157-.843h-9.5Zm0 0" style="stroke:none" transform="translate(124.062 267.936)"/></g><g style="fill:#fff;fill-opacity:1"><path d="M16.11 0h-3.282L1.391-31.25h3.328l9.765 26.719L20-19.72h3.328L28.891-4.53l9.765-26.719h3.328L30.562 0H27.22l-5.547-15.188Zm0 0" style="stroke:none" transform="translate(44.518 267.161)"/></g><g style="fill:#fff;fill-opacity:1"><path d="M23.89-28.156H4.485v9.781h14.594v3.094H4.484v12.14h19.407V0H1.39v-31.25h22.5Zm0 0" style="stroke:none" transform="translate(93.77 267.161)"/></g><g style="fill:#fff;fill-opacity:1"><path d="M23.234-9.266a8.887 8.887 0 0 1-1.25 4.61 9.807 9.807 0 0 1-3.328 3.39C17.27-.422 15.726 0 14.031 0H1.391v-31.203h10.28c1.446 0 2.755.367 3.923 1.094a8.006 8.006 0 0 1 2.797 2.859 7.627 7.627 0 0 1 1.047 3.922c0 1.105-.22 2.121-.657 3.047a6.699 6.699 0 0 1-1.797 2.36c1.82.624 3.317 1.718 4.485 3.28 1.176 1.555 1.765 3.344 1.765 5.375Zm-11.656-18.89H4.484v9.64h7.188c1.383-.062 2.508-.554 3.375-1.484.863-.926 1.297-2.035 1.297-3.328 0-1.3-.45-2.43-1.344-3.39-.898-.958-2.04-1.438-3.422-1.438ZM4.484-3.11h9.547c1.196 0 2.25-.282 3.156-.844a5.966 5.966 0 0 0 2.141-2.297 6.438 6.438 0 0 0 .766-3.063 6.035 6.035 0 0 0-.797-3.046 6.023 6.023 0 0 0-2.156-2.22c-.907-.562-1.961-.843-3.157-.843h-9.5Zm0 0" style="stroke:none" transform="translate(124.922 267.161)"/></g></svg>